<svg width="100%" height="100%" id="svg" viewBox="0 0 1440 700" xmlns="http://www.w3.org/2000/svg" class="transition duration-300 ease-in-out delay-150"><path d="M 0,700 C 0,700 0,175 0,175 C 83.22488038277513,182.89473684210526 166.44976076555025,190.78947368421055 261,199 C 355.55023923444975,207.21052631578945 461.42583732057415,215.73684210526318 550,205 C 638.5741626794259,194.26315789473682 709.846889952153,164.26315789473682 812,162 C 914.153110047847,159.73684210526318 1047.1866028708134,185.21052631578948 1157,192 C 1266.8133971291866,198.78947368421052 1353.4066985645932,186.89473684210526 1440,175 C 1440,175 1440,700 1440,700 Z" stroke="none" stroke-width="0" fill="#e4e4e466" class="transition-all duration-300 ease-in-out delay-150 path-0"></path><path d="M 0,700 C 0,700 0,350 0,350 C 100.06698564593302,335.4162679425837 200.13397129186603,320.83253588516743 294,303 C 387.86602870813397,285.16746411483257 475.53110047846894,264.08612440191393 563,289 C 650.4688995215311,313.91387559808607 737.7416267942583,384.82296650717706 830,400 C 922.2583732057417,415.17703349282294 1019.5023923444976,374.622009569378 1122,357 C 1224.4976076555024,339.377990430622 1332.248803827751,344.688995215311 1440,350 C 1440,350 1440,700 1440,700 Z" stroke="none" stroke-width="0" fill="#e4e4e488" class="transition-all duration-300 ease-in-out delay-150 path-1"></path><path d="M 0,700 C 0,700 0,525 0,525 C 69.6746411483254,530.6746411483253 139.3492822966508,536.3492822966507 249,524 C 358.6507177033492,511.65071770334936 508.2775119617223,481.27751196172255 615,480 C 721.7224880382777,478.72248803827745 785.5406698564595,506.5406698564593 874,531 C 962.4593301435405,555.4593301435407 1075.5598086124403,576.5598086124402 1174,575 C 1272.4401913875597,573.4401913875598 1356.22009569378,549.22009569378 1440,525 C 1440,525 1440,700 1440,700 Z" stroke="none" stroke-width="0" fill="#e4e4e4ff" class="transition-all duration-300 ease-in-out delay-150 path-2"></path></svg>