<svg width="100%" height="100%" id="svg" viewBox="0 0 1440 700" xmlns="http://www.w3.org/2000/svg" class="transition duration-300 ease-in-out delay-150"><defs><linearGradient id="gradient" x1="99%" y1="38%" x2="1%" y2="62%"><stop offset="5%" stop-color="#01576e66"></stop><stop offset="95%" stop-color="#002c4f66"></stop></linearGradient></defs><path d="M 0,700 C 0,700 0,175 0,175 C 102.8133971291866,190.7511961722488 205.6267942583732,206.50239234449762 292,212 C 378.3732057416268,217.49760765550238 448.3062200956938,212.74162679425834 541,197 C 633.6937799043062,181.25837320574166 749.1483253588516,154.5311004784689 859,141 C 968.8516746411484,127.4688995215311 1073.1004784688996,127.13397129186603 1169,135 C 1264.8995215311004,142.86602870813397 1352.4497607655503,158.93301435406698 1440,175 C 1440,175 1440,700 1440,700 Z" stroke="none" stroke-width="0" fill="url(#gradient)" class="transition-all duration-300 ease-in-out delay-150 path-0"></path><defs><linearGradient id="gradient" x1="99%" y1="38%" x2="1%" y2="62%"><stop offset="5%" stop-color="#01576e88"></stop><stop offset="95%" stop-color="#002c4f88"></stop></linearGradient></defs><path d="M 0,700 C 0,700 0,350 0,350 C 107.64593301435409,383.0143540669856 215.29186602870817,416.02870813397124 319,407 C 422.70813397129183,397.97129186602876 522.4784688995214,346.8995215311005 615,327 C 707.5215311004786,307.1004784688995 792.7942583732058,318.3732057416268 893,339 C 993.2057416267942,359.6267942583732 1108.3444976076555,389.60765550239233 1202,393 C 1295.6555023923445,396.39234449760767 1367.8277511961724,373.1961722488038 1440,350 C 1440,350 1440,700 1440,700 Z" stroke="none" stroke-width="0" fill="url(#gradient)" class="transition-all duration-300 ease-in-out delay-150 path-1"></path><defs><linearGradient id="gradient" x1="99%" y1="38%" x2="1%" y2="62%"><stop offset="5%" stop-color="#01576eff"></stop><stop offset="95%" stop-color="#002c4fff"></stop></linearGradient></defs><path d="M 0,700 C 0,700 0,525 0,525 C 90.92822966507174,540.1196172248804 181.85645933014348,555.2392344497608 273,572 C 364.1435406698565,588.7607655502392 455.5023923444977,607.1626794258373 549,582 C 642.4976076555023,556.8373205741627 738.1339712918659,488.11004784689004 843,489 C 947.8660287081341,489.88995215310996 1061.9617224880383,560.3971291866029 1163,578 C 1264.0382775119617,595.6028708133971 1352.0191387559807,560.3014354066986 1440,525 C 1440,525 1440,700 1440,700 Z" stroke="none" stroke-width="0" fill="url(#gradient)" class="transition-all duration-300 ease-in-out delay-150 path-2"></path></svg>