<svg width="100%" height="100%" id="svg" viewBox="0 0 1440 700" xmlns="http://www.w3.org/2000/svg" class="transition duration-300 ease-in-out delay-150"><path d="M 0,700 C 0,700 0,140 0,140 C 69.15836482308487,117.81655788388869 138.31672964616973,95.6331157677774 203,102 C 267.68327035383027,108.3668842322226 327.89144623840593,143.2840948127791 394,163 C 460.10855376159407,182.7159051872209 532.1174854002063,187.23050498110615 608,170 C 683.8825145997937,152.76949501889385 763.6386121607694,113.7938852627963 829,110 C 894.3613878392306,106.2061147372037 945.328065956716,137.5939539677087 1011,151 C 1076.671934043284,164.4060460322913 1157.049124012367,159.83029886636896 1231,155 C 1304.950875987633,150.16970113363104 1372.4754379938165,145.08485056681553 1440,140 C 1440,140 1440,700 1440,700 Z" stroke="none" stroke-width="0" fill="#00566d44" class="transition-all duration-300 ease-in-out delay-150 path-0"></path><path d="M 0,700 C 0,700 0,280 0,280 C 79.2504294057025,296.52147028512536 158.500858811405,313.0429405702508 221,307 C 283.499141188595,300.9570594297492 329.24699416008247,272.3497080041223 407,255 C 484.75300583991753,237.6502919958777 594.5111645482652,231.55822741326006 655,232 C 715.4888354517348,232.44177258673994 726.7083476468566,239.41738234283758 789,255 C 851.2916523531434,270.5826176571624 964.655444864308,294.7722432153899 1044,293 C 1123.344555135692,291.2277567846101 1168.669872895912,263.4936447956029 1229,257 C 1289.330127104088,250.5063552043971 1364.665063552044,265.25317760219855 1440,280 C 1440,280 1440,700 1440,700 Z" stroke="none" stroke-width="0" fill="#00566d66" class="transition-all duration-300 ease-in-out delay-150 path-1"></path><path d="M 0,700 C 0,700 0,420 0,420 C 60.210924081071795,428.1944349020955 120.42184816214359,436.388869804191 188,430 C 255.5781518378564,423.611130195809 330.5235314324974,402.6389556853315 405,392 C 479.4764685675026,381.3610443146685 553.4840261078667,381.055307454483 616,404 C 678.5159738921333,426.944692545517 729.5403641360357,473.13981449673645 800,469 C 870.4596358639643,464.86018550326355 960.3545173479904,410.385434558571 1028,397 C 1095.6454826520096,383.614565441429 1141.0415664720028,411.3184472689797 1206,422 C 1270.9584335279972,432.6815527310203 1355.4792167639985,426.3407763655101 1440,420 C 1440,420 1440,700 1440,700 Z" stroke="none" stroke-width="0" fill="#00566d88" class="transition-all duration-300 ease-in-out delay-150 path-2"></path><path d="M 0,700 C 0,700 0,560 0,560 C 81.22981793198213,560.7193404328409 162.45963586396425,561.4386808656819 230,569 C 297.54036413603575,576.5613191343181 351.39127447612515,590.9646169701134 417,595 C 482.60872552387485,599.0353830298866 559.9752662315356,592.7028512538647 624,585 C 688.0247337684644,577.2971487461353 738.7076605977327,568.2239780144281 798,575 C 857.2923394022673,581.7760219855719 925.1940913775336,604.4012366884232 1008,598 C 1090.8059086224664,591.5987633115768 1188.5159738921332,556.1710752318791 1263,545 C 1337.4840261078668,533.8289247681209 1388.7420130539335,546.9144623840605 1440,560 C 1440,560 1440,700 1440,700 Z" stroke="none" stroke-width="0" fill="#00566dff" class="transition-all duration-300 ease-in-out delay-150 path-3"></path></svg>